<svg id="visual" viewBox="0 0 900 600" width="900" height="600" xmlns="http://www.w3.org/2000/svg" xmlns:xlink="http://www.w3.org/1999/xlink" version="1.1"><rect x="0" y="0" width="900" height="600" fill="#fff"></rect><path d="M585 600L556.5 583.3C528 566.7 471 533.3 454.7 500C438.3 466.7 462.7 433.3 474 400C485.3 366.7 483.7 333.3 476 300C468.3 266.7 454.7 233.3 475 200C495.3 166.7 549.7 133.3 537.3 100C525 66.7 446 33.3 406.5 16.7L367 0L900 0L900 16.7C900 33.3 900 66.7 900 100C900 133.3 900 166.7 900 200C900 233.3 900 266.7 900 300C900 333.3 900 366.7 900 400C900 433.3 900 466.7 900 500C900 533.3 900 566.7 900 583.3L900 600Z" fill="#1C274C"></path></svg>